{
    "asset" : {
        "generator" : "Khronos glTF Blender I/O v1.3.48",
        "version" : "2.0"
    },
    "scene" : 0,
    "scenes" : [
        {
            "name" : "Scene",
            "nodes" : [
                0
            ]
        }
    ],
    "nodes" : [
        {
            "mesh" : 0,
            "name" : "Plane.007",
            "rotation" : [
                0.5000000596046448,
                -0.4999999701976776,
                -0.4999999403953552,
                0.5000000596046448
            ],
            "scale" : [
                0.56605064868927,
                0.785589337348938,
                0.785589337348938
            ],
            "translation" : [
                -0.4635941982269287,
                0.050513915717601776,
                0.06263251602649689
            ]
        }
    ],
    "materials" : [
        {
            "doubleSided" : true,
            "emissiveFactor" : [
                0,
                0,
                0
            ],
            "name" : "Material",
            "pbrMetallicRoughness" : {
                "baseColorTexture" : {
                    "index" : 0,
                    "texCoord" : 0
                },
                "metallicFactor" : 0,
                "roughnessFactor" : 0.5
            }
        }
    ],
    "meshes" : [
        {
            "name" : "Plane.007",
            "primitives" : [
                {
                    "attributes" : {
                        "POSITION" : 0,
                        "NORMAL" : 1,
                        "TEXCOORD_0" : 2
                    },
                    "indices" : 3,
                    "material" : 0
                }
            ]
        }
    ],
    "textures" : [
        {
            "source" : 0
        }
    ],
    "images" : [
        {
            "bufferView" : 4,
            "mimeType" : "image/png",
            "name" : "revuelto"
        }
    ],
    "accessors" : [
        {
            "bufferView" : 0,
            "componentType" : 5126,
            "count" : 2056,
            "max" : [
                0.8406587243080139,
                1.423074722290039,
                2.9586429595947266
            ],
            "min" : [
                -1.117357850074768,
                -1.3257150650024414,
                -3.8458993434906006
            ],
            "type" : "VEC3"
        },
        {
            "bufferView" : 1,
            "componentType" : 5126,
            "count" : 2056,
            "type" : "VEC3"
        },
        {
            "bufferView" : 2,
            "componentType" : 5126,
            "count" : 2056,
            "type" : "VEC2"
        },
        {
            "bufferView" : 3,
            "componentType" : 5123,
            "count" : 3114,
            "type" : "SCALAR"
        }
    ],
    "bufferViews" : [
        {
            "buffer" : 0,
            "byteLength" : 24672,
            "byteOffset" : 0
        },
        {
            "buffer" : 0,
            "byteLength" : 24672,
            "byteOffset" : 24672
        },
        {
            "buffer" : 0,
            "byteLength" : 16448,
            "byteOffset" : 49344
        },
        {
            "buffer" : 0,
            "byteLength" : 6228,
            "byteOffset" : 65792
        },
        {
            "buffer" : 0,
            "byteLength" : 181619,
            "byteOffset" : 72020
        }
    ],
    "buffers" : [
        {
            "byteLength" : 253640,
            "uri" : "data:application/octet-stream;base64,"
        }
    ]
}
