{
    "asset" : {
        "generator" : "Khronos glTF Blender I/O v1.3.48",
        "version" : "2.0"
    },
    "scene" : 0,
    "scenes" : [
        {
            "name" : "Scene",
            "nodes" : [
                0
            ]
        }
    ],
    "nodes" : [
        {
            "mesh" : 0,
            "name" : "Plane.028",
            "rotation" : [
                -0.49999943375587463,
                -0.5000005960464478,
                0.5000007152557373,
                -0.4999992847442627
            ],
            "scale" : [
                0.6758909225463867,
                0.26470136642456055,
                0.26470136642456055
            ],
            "translation" : [
                0.0007312893867492676,
                0.27365532517433167,
                -0.03188098967075348
            ]
        }
    ],
    "materials" : [
        {
            "doubleSided" : true,
            "emissiveFactor" : [
                0,
                0,
                0
            ],
            "name" : "Material",
            "pbrMetallicRoughness" : {
                "baseColorTexture" : {
                    "index" : 0,
                    "texCoord" : 0
                },
                "metallicFactor" : 0,
                "roughnessFactor" : 0.5
            }
        }
    ],
    "meshes" : [
        {
            "name" : "Plane.028",
            "primitives" : [
                {
                    "attributes" : {
                        "POSITION" : 0,
                        "NORMAL" : 1,
                        "TEXCOORD_0" : 2
                    },
                    "indices" : 3,
                    "material" : 0
                }
            ]
        }
    ],
    "textures" : [
        {
            "source" : 0
        }
    ],
    "images" : [
        {
            "bufferView" : 4,
            "mimeType" : "image/png",
            "name" : "GTR2"
        }
    ],
    "accessors" : [
        {
            "bufferView" : 0,
            "componentType" : 5126,
            "count" : 7587,
            "max" : [
                2.4500036239624023,
                2.8062400817871094,
                1.6107503175735474
            ],
            "min" : [
                -2.5395476818084717,
                -2.8062400817871094,
                -1.7183362245559692
            ],
            "type" : "VEC3"
        },
        {
            "bufferView" : 1,
            "componentType" : 5126,
            "count" : 7587,
            "type" : "VEC3"
        },
        {
            "bufferView" : 2,
            "componentType" : 5126,
            "count" : 7587,
            "type" : "VEC2"
        },
        {
            "bufferView" : 3,
            "componentType" : 5123,
            "count" : 12300,
            "type" : "SCALAR"
        }
    ],
    "bufferViews" : [
        {
            "buffer" : 0,
            "byteLength" : 91044,
            "byteOffset" : 0
        },
        {
            "buffer" : 0,
            "byteLength" : 91044,
            "byteOffset" : 91044
        },
        {
            "buffer" : 0,
            "byteLength" : 60696,
            "byteOffset" : 182088
        },
        {
            "buffer" : 0,
            "byteLength" : 24600,
            "byteOffset" : 242784
        },
        {
            "buffer" : 0,
            "byteLength" : 94370,
            "byteOffset" : 267384
        }
    ],
    "buffers" : [
        {
            "byteLength" : 361756,
            "uri" : "data:application/octet-stream;base64,"
        }
    ]
}
