{
    "asset" : {
        "generator" : "Khronos glTF Blender I/O v1.3.48",
        "version" : "2.0"
    },
    "scene" : 0,
    "scenes" : [
        {
            "name" : "Scene",
            "nodes" : [
                0
            ]
        }
    ],
    "nodes" : [
        {
            "mesh" : 0,
            "name" : "Plane.007",
            "rotation" : [
                0,
                0,
                -0.7071067690849304,
                0.7071068286895752
            ],
            "scale" : [
                0.4972504675388336,
                0.4972504675388336,
                0.4972504675388336
            ],
            "translation" : [
                -0.0037755630910396576,
                -0.020799219608306885,
                -0.06267338991165161
            ]
        }
    ],
    "materials" : [
        {
            "doubleSided" : true,
            "emissiveFactor" : [
                0,
                0,
                0
            ],
            "name" : "Material",
            "pbrMetallicRoughness" : {
                "baseColorTexture" : {
                    "index" : 0,
                    "texCoord" : 0
                },
                "metallicFactor" : 0,
                "roughnessFactor" : 0.5
            }
        }
    ],
    "meshes" : [
        {
            "name" : "Plane.007",
            "primitives" : [
                {
                    "attributes" : {
                        "POSITION" : 0,
                        "NORMAL" : 1,
                        "TEXCOORD_0" : 2
                    },
                    "indices" : 3,
                    "material" : 0
                }
            ]
        }
    ],
    "textures" : [
        {
            "source" : 0
        }
    ],
    "images" : [
        {
            "bufferView" : 4,
            "mimeType" : "image/png",
            "name" : "r8"
        }
    ],
    "accessors" : [
        {
            "bufferView" : 0,
            "componentType" : 5126,
            "count" : 2628,
            "max" : [
                0.600730299949646,
                1.4015575647354126,
                3.585662364959717
            ],
            "min" : [
                -1.1140656471252441,
                -1.3225337266921997,
                -3.016449451446533
            ],
            "type" : "VEC3"
        },
        {
            "bufferView" : 1,
            "componentType" : 5126,
            "count" : 2628,
            "type" : "VEC3"
        },
        {
            "bufferView" : 2,
            "componentType" : 5126,
            "count" : 2628,
            "type" : "VEC2"
        },
        {
            "bufferView" : 3,
            "componentType" : 5123,
            "count" : 4188,
            "type" : "SCALAR"
        }
    ],
    "bufferViews" : [
        {
            "buffer" : 0,
            "byteLength" : 31536,
            "byteOffset" : 0
        },
        {
            "buffer" : 0,
            "byteLength" : 31536,
            "byteOffset" : 31536
        },
        {
            "buffer" : 0,
            "byteLength" : 21024,
            "byteOffset" : 63072
        },
        {
            "buffer" : 0,
            "byteLength" : 8376,
            "byteOffset" : 84096
        },
        {
            "buffer" : 0,
            "byteLength" : 165899,
            "byteOffset" : 92472
        }
    ],
    "buffers" : [
        {
            "byteLength" : 258372,
            "uri" : "data:application/octet-stream;base64,"
        }
    ]
}
